<svg width="20" height="20" viewBox="0 0 20 20" fill="none" xmlns="http://www.w3.org/2000/svg">
<g clip-path="url(#clip0_29_1909)">
<path d="M9.99992 4.99967C13.1583 4.99967 15.9749 6.77467 17.3499 9.58301C15.9749 12.3913 13.1583 14.1663 9.99992 14.1663C6.84158 14.1663 4.02492 12.3913 2.64992 9.58301C4.02492 6.77467 6.84158 4.99967 9.99992 4.99967ZM9.99992 3.33301C5.83325 3.33301 2.27492 5.92467 0.833252 9.58301C2.27492 13.2413 5.83325 15.833 9.99992 15.833C14.1666 15.833 17.7249 13.2413 19.1666 9.58301C17.7249 5.92467 14.1666 3.33301 9.99992 3.33301ZM9.99992 7.49967C11.1499 7.49967 12.0833 8.43301 12.0833 9.58301C12.0833 10.733 11.1499 11.6663 9.99992 11.6663C8.84992 11.6663 7.91658 10.733 7.91658 9.58301C7.91658 8.43301 8.84992 7.49967 9.99992 7.49967ZM9.99992 5.83301C7.93325 5.83301 6.24992 7.51634 6.24992 9.58301C6.24992 11.6497 7.93325 13.333 9.99992 13.333C12.0666 13.333 13.7499 11.6497 13.7499 9.58301C13.7499 7.51634 12.0666 5.83301 9.99992 5.83301Z" fill="#BCBCC7"/>
</g>
<line x1="3.29289" y1="16.2929" x2="16.7279" y2="2.85786" stroke="#BCBCC7" stroke-width="2"/>
<defs>
<clipPath id="clip0_29_1909">
<rect width="20" height="20" fill="white"/>
</clipPath>
</defs>
</svg>
